<svg width="21" height="21" viewBox="0 0 21 21" fill="none" xmlns="http://www.w3.org/2000/svg">
<path d="M7.31999 5.0625C7.1661 4.90861 6.97587 4.79603 6.76692 4.73518C6.55797 4.67433 6.33704 4.66717 6.12459 4.71437C5.91213 4.76157 5.71502 4.86161 5.55149 5.00522C5.38796 5.14882 5.26331 5.33136 5.18906 5.53594L0.267181 19.0753C0.196461 19.2704 0.173627 19.4796 0.200599 19.6853C0.227571 19.891 0.303559 20.0873 0.422172 20.2575C0.540785 20.4278 0.698552 20.5671 0.8822 20.6636C1.06585 20.7602 1.27 20.8113 1.47749 20.8125C1.63005 20.8121 1.78138 20.7852 1.92468 20.7328L15.4603 15.8109C15.6645 15.7362 15.8466 15.6111 15.9897 15.4474C16.1328 15.2836 16.2323 15.0864 16.279 14.874C16.3257 14.6616 16.3182 14.4409 16.257 14.2322C16.1958 14.0235 16.083 13.8336 15.9291 13.68L7.31999 5.0625ZM1.54031 19.6753C1.5102 19.6865 1.47754 19.6887 1.44618 19.6819C1.41483 19.675 1.3861 19.6593 1.3634 19.6366C1.3407 19.6139 1.32499 19.5852 1.31813 19.5538C1.31127 19.5225 1.31354 19.4898 1.32468 19.4597L2.74781 15.5438L5.45624 18.2512L1.54031 19.6753ZM6.62249 17.8275L3.17249 14.3766L4.54781 10.5938L10.4062 16.4522L6.62249 17.8275ZM15.1875 14.6316C15.1818 14.6594 15.169 14.6853 15.1503 14.7067C15.1315 14.7281 15.1075 14.7442 15.0806 14.7534L11.5725 16.0312L4.96874 9.42656L6.24656 5.92406C6.25563 5.89707 6.27168 5.87297 6.29309 5.8542C6.31449 5.83543 6.34049 5.82266 6.36843 5.81719C6.38119 5.81552 6.39411 5.81552 6.40687 5.81719C6.42875 5.81708 6.45043 5.82144 6.47057 5.82998C6.49072 5.83852 6.50892 5.85107 6.52406 5.86688L15.1378 14.4806C15.1583 14.4994 15.1737 14.5232 15.1824 14.5496C15.1911 14.576 15.1929 14.6043 15.1875 14.6316ZM12.1875 6.75C12.2008 6.27214 12.3169 5.80275 12.5278 5.37375C12.9909 4.4475 13.8684 3.9375 15 3.9375C15.7003 3.9375 16.1747 3.68062 16.4512 3.15188C16.5916 2.87087 16.6721 2.56375 16.6875 2.25C16.6875 2.10082 16.7468 1.95774 16.8522 1.85225C16.9577 1.74676 17.1008 1.6875 17.25 1.6875C17.3992 1.6875 17.5423 1.74676 17.6477 1.85225C17.7532 1.95774 17.8125 2.10082 17.8125 2.25C17.8125 3.22312 17.2247 5.0625 15 5.0625C14.2997 5.0625 13.8253 5.31938 13.5487 5.84812C13.4079 6.12896 13.3274 6.43618 13.3125 6.75C13.3125 6.89918 13.2532 7.04226 13.1477 7.14775C13.0423 7.25324 12.8992 7.3125 12.75 7.3125C12.6008 7.3125 12.4577 7.25324 12.3522 7.14775C12.2468 7.04226 12.1875 6.89918 12.1875 6.75ZM9.93749 3.75V1.5C9.93749 1.35082 9.99676 1.20774 10.1022 1.10225C10.2077 0.996763 10.3508 0.9375 10.5 0.9375C10.6492 0.9375 10.7923 0.996763 10.8977 1.10225C11.0032 1.20774 11.0625 1.35082 11.0625 1.5V3.75C11.0625 3.89918 11.0032 4.04226 10.8977 4.14775C10.7923 4.25324 10.6492 4.3125 10.5 4.3125C10.3508 4.3125 10.2077 4.25324 10.1022 4.14775C9.99676 4.04226 9.93749 3.89918 9.93749 3.75ZM19.1475 11.6025C19.2028 11.654 19.2471 11.7161 19.2778 11.7851C19.3086 11.8541 19.3251 11.9286 19.3264 12.0041C19.3278 12.0796 19.3139 12.1547 19.2856 12.2247C19.2573 12.2947 19.2152 12.3584 19.1618 12.4118C19.1084 12.4652 19.0447 12.5073 18.9747 12.5356C18.9046 12.5639 18.8296 12.5778 18.7541 12.5764C18.6786 12.5751 18.6041 12.5586 18.5351 12.5278C18.4661 12.4971 18.404 12.4528 18.3525 12.3975L16.8525 10.8975C16.7531 10.7909 16.699 10.6498 16.7016 10.5041C16.7042 10.3584 16.7632 10.2193 16.8663 10.1163C16.9693 10.0132 17.1084 9.95419 17.2541 9.95162C17.3998 9.94905 17.5409 10.0031 17.6475 10.1025L19.1475 11.6025ZM19.6781 7.28344L17.4281 8.03344C17.3576 8.05852 17.2829 8.06929 17.2082 8.06513C17.1335 8.06097 17.0604 8.04195 16.9932 8.00919C16.9259 7.97644 16.8659 7.9306 16.8166 7.87436C16.7673 7.81812 16.7297 7.75261 16.706 7.68166C16.6823 7.61071 16.673 7.53575 16.6786 7.46117C16.6842 7.38658 16.7047 7.31386 16.7388 7.24728C16.7728 7.18069 16.8198 7.12156 16.877 7.07336C16.9342 7.02516 17.0005 6.98885 17.0719 6.96656L19.3219 6.21656C19.4624 6.17267 19.6146 6.18566 19.7457 6.25275C19.8768 6.31983 19.9764 6.43565 20.023 6.57534C20.0697 6.71503 20.0597 6.86744 19.9952 6.99984C19.9307 7.13223 19.8169 7.23406 19.6781 7.28344Z" fill="white"/>
</svg>
